<?xml version="1.0" encoding="UTF-8" standalone="no"?>
<svg xmlns="http://www.w3.org/2000/svg" version="1.0" width="313.000000pt" height="405.000000pt" viewBox="0 0 313.000000 405.000000" preserveAspectRatio="xMidYMid meet">
    <metadata>
    	Created by potrace 1.13, written by Peter Selinger 2001-2015
    </metadata>
	<g transform="translate(0.000000,405.000000) scale(0.100000,-0.100000)" fill="#1589EE" stroke="none">
		<path d="M1395 3954 c-367 -56 -637 -187 -875 -424 -200 -198 -325 -429 -386 -711 -26 -119 -26 -409 0 -528 123 -568 547 -983 1134 -1113 143 -32 453 -32 599 0 297 65 534 192 744 401 274 272 412 599 412 976 0 279 -78 534 -238 775 -71 107 -269 302 -384 379 -163 108 -335 180 -533 222 -91 20 -396 34 -473 23z m579 -482 c2 -4 -72 -184 -165 -400 -93 -216 -169 -397 -169 -402 0 -6 47 -10 111 -10 101 0 111 -2 107 -17 -3 -10 -149 -236 -324 -503 -176 -267 -331 -503 -344 -525 -59 -96 -20 16 138 401 93 225 167 412 165 417 -2 4 -56 7 -119 7 -97 0 -114 2 -114 16 0 8 45 147 101 307 56 161 129 375 164 477 35 102 68 197 74 213 l11 27 179 0 c99 0 182 -4 185 -8z"/>
	</g>
</svg>